<svg xmlns="http://www.w3.org/2000/svg" xmlns:xlink="http://www.w3.org/1999/xlink" width="118.857" height="118"
     viewBox="0 0 118.857 118">
    <defs>
        <style>.a{fill:#fff;}.b{clip-path:url(#a);}</style>
        <clipPath id="a">
            <rect class="a" width="118.857" height="118"/>
        </clipPath>
    </defs>
    <g class="b" transform="translate(0 0)">
        <path class="a"
              d="M79.95,11.5a13.553,13.553,0,0,1-3.671-.475c-3.219-.9-5.473-2.974-7.654-4.975C65.95,3.6,63.423,1.278,59.239.92A161.588,161.588,0,0,0,41.161.752C38.2.836,35.145.921,32.185.921H.725V.338h31.46c2.952,0,6.006-.085,8.96-.169a161.7,161.7,0,0,1,18.144.17c4.383.376,7.1,2.871,9.73,5.284,2.131,1.955,4.332,3.976,7.417,4.842,5.1,1.433,10.973-.738,16.152-2.654.732-.271,1.445-.535,2.132-.779,1.325-.471,2.641-.955,3.956-1.439,6.1-2.244,12.4-4.565,19.1-5.254l.059.58c-6.621.682-12.891,2.989-18.957,5.221-1.315.484-2.634.969-3.96,1.441-.686.244-1.4.506-2.126.777-3.88,1.436-8.5,3.144-12.84,3.144"
              transform="translate(0.121 0)"/>
        <path class="a"
              d="M81.515,16.474a16.515,16.515,0,0,1-3.642-.386,27.206,27.206,0,0,1-8.453-4.03c-3.184-2.006-6.19-3.9-10.179-4.229Q56.7,7.619,54.132,7.4c-7.287-.627-14.82-1.277-22.118-1.412A145.629,145.629,0,0,0,15.8,6.9c-4.854.458-9.872.932-14.856.932H.725V7.247c5.024,0,10.105-.466,15.017-.929A144.962,144.962,0,0,1,32.024,5.4c7.317.136,14.862.786,22.158,1.415q2.565.22,5.107.434c4.131.341,7.339,2.362,10.442,4.316A26.761,26.761,0,0,0,78,15.52c5.11,1.151,10.762-.615,15.751-2.173.683-.213,1.355-.423,2.015-.623q1.669-.506,3.327-1.02c6-1.857,12.213-3.775,18.678-4.456l.062.58c-6.411.675-12.315,2.5-18.567,4.434q-1.662.513-3.331,1.022c-.659.2-1.329.408-2.011.62-3.91,1.222-8.225,2.57-12.412,2.57"
              transform="translate(0.121 0.895)"/>
        <path class="a"
              d="M85.039,19.838a38.148,38.148,0,0,1-3.978-.2,66.564,66.564,0,0,1-10.449-2.245A60.885,60.885,0,0,0,59.245,15.07,74.906,74.906,0,0,1,45.39,12.244a73.844,73.844,0,0,0-13.732-2.8c-5.93-.442-11.73,1.2-17.344,2.788A66.626,66.626,0,0,1,.748,15.07l-.04-.582a66.226,66.226,0,0,0,13.448-2.813c5.663-1.6,11.521-3.251,17.546-2.809a74.25,74.25,0,0,1,13.842,2.816,74.5,74.5,0,0,0,13.746,2.806,61.405,61.405,0,0,1,11.477,2.342,66.1,66.1,0,0,0,10.357,2.227c7.094.745,14.3-.752,21.274-2.205a98.307,98.307,0,0,1,15.4-2.364l.027.582a97.7,97.7,0,0,0-15.3,2.355c-5.721,1.19-11.6,2.414-17.477,2.414"
              transform="translate(0.118 1.461)"/>
        <path class="a"
              d="M85.429,23.411q-.7,0-1.409-.008c-7.559-.08-15.894-.462-24.773-1.134-5.241-.4-10-2.558-14.607-4.647-4.235-1.921-8.614-3.908-13.31-4.478-6.065-.731-11.811,1.942-17.368,4.531-4.243,1.977-8.63,4.02-13.2,4.594l-.072-.58c4.475-.561,8.82-2.584,13.022-4.542,5.632-2.623,11.455-5.335,17.686-4.581,4.785.58,9.2,2.587,13.479,4.526,4.559,2.068,9.273,4.208,14.411,4.595,8.866.672,17.188,1.053,24.734,1.134,5.607.063,11.3-.259,16.8-.567,5.561-.313,11.312-.634,16.987-.567l-.007.583c-5.658-.066-11.4.254-16.949.566-5.051.283-10.26.576-15.428.576"
              transform="translate(0.115 2.067)"/>
        <path class="a"
              d="M77.561,29.711c-6.139,0-12.278-.153-18.328-.611-5.366-.408-10.117-2.814-14.712-5.141-4.2-2.126-8.539-4.324-13.293-4.944-6.1-.8-11.427,2.006-17.065,4.97C9.927,26.213,5.549,28.516.854,29.1l-.071-.578c4.589-.57,8.919-2.847,13.108-5.05,5.471-2.876,11.129-5.849,17.412-5.032,4.853.633,9.24,2.854,13.483,5,4.544,2.3,9.241,4.68,14.491,5.079,12.159.925,24.709.605,36.845.3,7.086-.178,14.409-.363,21.553-.3l-.006.583c-7.131-.065-14.452.119-21.532.3-6.12.155-12.348.313-18.577.313"
              transform="translate(0.13 3.042)"/>
        <path class="a"
              d="M87.127,37.569q-.889,0-1.778-.026c-5.073-.149-10.228-.668-15.214-1.169-3.668-.37-7.46-.751-11.184-.981-5.109-.317-9.908-2.112-14.551-3.849-4.462-1.669-9.077-3.395-13.913-3.769-5.435-.422-10.572,1.731-15.537,3.814-3.977,1.669-8.089,3.393-12.4,3.845l-.061-.58c4.228-.443,8.3-2.152,12.238-3.8,5.03-2.11,10.229-4.3,15.808-3.858C35.449,27.577,40.1,29.317,44.6,31c4.6,1.721,9.36,3.5,14.383,3.812,3.733.23,7.533.612,11.2.982,4.976.5,10.122,1.018,15.172,1.166a113.435,113.435,0,0,0,15.986-1.039,132.964,132.964,0,0,1,13.68-1.067l.006.583a133.15,133.15,0,0,0-13.62,1.062,127.458,127.458,0,0,1-14.29,1.069"
              transform="translate(0.413 4.511)"/>
        <path class="a"
              d="M86.742,46.782a22.179,22.179,0,0,1-2.675-.16,85.347,85.347,0,0,1-11.3-2.421c-4.607-1.207-9.369-2.456-14.252-2.65a103.573,103.573,0,0,1-13.95-1.829,105.823,105.823,0,0,0-13.459-1.8c-4.857-.227-9.557.8-14.108,1.795A65.9,65.9,0,0,1,5.2,41.552l-.021-.583A65.641,65.641,0,0,0,16.87,39.149c4.588-1,9.33-2.04,14.259-1.808a106.141,106.141,0,0,1,13.535,1.808,103.148,103.148,0,0,0,13.87,1.819c4.948.2,9.741,1.453,14.378,2.669a85.054,85.054,0,0,0,11.225,2.406c5.461.662,10.291-.854,15.4-2.458a51.011,51.011,0,0,1,11.308-2.616l.045.581a50.637,50.637,0,0,0-11.178,2.591c-4.147,1.3-8.413,2.64-12.974,2.64"
              transform="translate(0.861 6.201)"/>
        <path class="a"
              d="M86.454,55.387a15.856,15.856,0,0,1-2.827-.257,59.175,59.175,0,0,1-11.036-3.514c-4.6-1.805-9.361-3.672-14.426-3.861-9.72-.363-19.591-.226-29.136-.093-7.129.1-14.5.2-21.755.093l.009-.583c7.242.107,14.613,0,21.737-.093,9.551-.134,19.43-.269,29.166.093,5.163.194,9.969,2.078,14.616,3.9A58.787,58.787,0,0,0,83.73,54.557c5.53.985,9.5-1.179,13.709-3.472,3.072-1.677,6.249-3.409,10.15-3.91l.073.578c-3.791.486-6.919,2.192-9.943,3.843-3.557,1.941-6.951,3.791-11.264,3.791"
              transform="translate(1.209 7.802)"/>
        <path class="a"
              d="M86.1,61.973a16.166,16.166,0,0,1-2.861-.259,58.938,58.938,0,0,1-10.85-3.43c-4.54-1.766-9.234-3.591-14.226-3.776C49.24,54.175,40,53.843,30.8,53.854c-3.551.009-7.158.175-10.645.334-4.219.195-8.581.394-12.883.321l.01-.583c4.284.073,8.635-.126,12.846-.32,3.494-.16,7.107-.325,10.671-.335,9.193-.021,18.454.321,27.385.654,5.089.19,9.83,2.033,14.414,3.816a58.479,58.479,0,0,0,10.742,3.4c5.529.984,9.666-1.151,14.047-3.414,3.125-1.614,6.357-3.284,10.2-3.8l.078.577c-3.739.5-6.925,2.148-10.006,3.741-3.692,1.907-7.217,3.727-11.556,3.727"
              transform="translate(1.209 8.854)"/>
        <path class="a"
              d="M84.731,65.876a29.948,29.948,0,0,1-3.159-.162,88.858,88.858,0,0,1-10.259-1.906,70.574,70.574,0,0,0-12.8-2.085,95.467,95.467,0,0,1-14.931-2.167,99.6,99.6,0,0,0-14.116-2.123c-4.638-.241-8.954.955-13.133,2.118A48.8,48.8,0,0,1,5.2,61.723l-.024-.583a48.412,48.412,0,0,0,11-2.149C20.4,57.815,24.765,56.6,29.5,56.852a99.918,99.918,0,0,1,14.2,2.132A95.021,95.021,0,0,0,58.536,61.14a71.007,71.007,0,0,1,12.905,2.1,88.433,88.433,0,0,0,10.192,1.9c5.842.619,11.638-.686,17.243-1.944a78.644,78.644,0,0,1,11.977-2.049l.038.582A78.229,78.229,0,0,0,99,63.759c-4.645,1.044-9.421,2.117-14.272,2.117"
              transform="translate(0.861 9.444)"/>
        <path class="a"
              d="M74.721,69.378c-5.279,0-10.572-.085-15.808-.341-5.81-.282-11.253-2.454-16.516-4.553-4.926-1.966-10.02-4-15.366-4.447C21.992,59.615,17.92,61.989,13.6,64.5c-3.431,2-6.979,4.065-11.051,4.595l-.075-.578C6.435,68,9.93,65.968,13.311,64c4.2-2.449,8.557-4.986,13.77-4.542,5.432.456,10.567,2.505,15.533,4.486,5.219,2.082,10.616,4.235,16.328,4.512,10.59.513,21.428.336,31.91.162,7.938-.133,16.147-.269,24.19-.1l-.012.583c-8.032-.167-16.235-.031-24.169.1-5.313.087-10.72.177-16.139.177"
              transform="translate(0.412 9.874)"/>
        <path class="a"
              d="M60.32,76.236q-.539,0-1.079-.027c-6.275-.315-11.9-3.246-17.332-6.079-4.83-2.519-9.827-5.124-15.226-5.845C20.9,63.508,16.776,66.7,12.412,70.07,8.954,72.742,5.379,75.5.865,76.207l-.091-.577c4.367-.679,7.882-3.395,11.281-6.021,4.266-3.3,8.679-6.707,14.7-5.9,5.5.735,10.544,3.365,15.419,5.906,5.381,2.806,10.945,5.706,17.093,6.015a40.613,40.613,0,0,0,10.892-1.455,57.546,57.546,0,0,1,7.867-1.4c8.05-.667,16.373.372,24.419,1.373,5.021.624,10.211,1.271,15.235,1.486l-.026.583c-5.047-.217-10.25-.864-15.282-1.49-8.018-1-16.308-2.032-24.3-1.37a57.112,57.112,0,0,0-7.786,1.391,45.406,45.406,0,0,1-9.973,1.5"
              transform="translate(0.129 10.569)"/>
        <path class="a"
              d="M60.218,82.892q-.479,0-.963-.024c-6.2-.328-11.744-3.19-17.1-5.957-4.791-2.474-9.744-5.03-15.112-5.731-5.794-.757-10.021,2.371-14.5,5.681-3.549,2.624-7.218,5.337-11.767,6L.69,82.287c4.4-.645,8.013-3.313,11.5-5.894,4.372-3.234,8.89-6.576,14.922-5.791,5.47.714,10.468,3.295,15.3,5.791,5.306,2.738,10.792,5.572,16.868,5.892,3.8.195,7.422-.878,10.923-1.922a43.659,43.659,0,0,1,8.27-1.887c7.563-.722,15.255.567,22.695,1.815a119.559,119.559,0,0,0,16.643,1.994l-.014.583a120.031,120.031,0,0,1-16.726-2c-7.4-1.242-15.057-2.524-22.542-1.809a43.2,43.2,0,0,0-8.16,1.866,35.588,35.588,0,0,1-10.157,1.97"
              transform="translate(0.115 11.716)"/>
        <path class="a"
              d="M59.624,89.373q-.18,0-.36,0c-5.966-.132-11.374-2.746-16.6-5.274-4.549-2.2-9.254-4.475-14.278-5.077-5.795-.688-10.38,2.1-15.235,5.057C9.324,86.406,5.369,88.814.765,89.367L.7,88.788c4.478-.538,8.377-2.913,12.148-5.211,4.726-2.878,9.618-5.857,15.607-5.137,5.121.612,9.87,2.909,14.462,5.129,5.173,2.5,10.523,5.087,16.362,5.216,4.233.073,8.043-1.538,11.738-3.117a37.286,37.286,0,0,1,9.14-3c7.377-1.087,14.91.976,22.192,2.966,5.1,1.392,10.369,2.834,15.481,3.15l-.037.583c-5.171-.321-10.471-1.77-15.6-3.171-7.222-1.974-14.691-4.013-21.954-2.952a36.911,36.911,0,0,0-9,2.959c-3.647,1.558-7.416,3.167-11.619,3.167"
              transform="translate(0.116 13.02)"/>
        <path class="a"
              d="M59.064,95.856c-5.616,0-10.807-2.3-15.83-4.533-4.3-1.906-8.738-3.879-13.4-4.376-5.838-.627-10.77,1.8-15.992,4.366C9.724,93.337,5.467,95.429.755,95.853L.7,95.272c4.6-.414,8.811-2.483,12.88-4.482,5.067-2.49,10.308-5.064,16.312-4.425,4.752.508,9.239,2.5,13.576,4.423,5.028,2.231,10.242,4.569,15.8,4.482,4.692-.048,8.755-2.264,12.685-4.407,3.149-1.718,6.4-3.494,10.008-4.193,7.18-1.4,14.42,1.473,21.421,4.244,4.762,1.886,9.687,3.836,14.459,4.358l-.063.578c-4.85-.531-9.813-2.5-14.612-4.394-6.921-2.739-14.081-5.573-21.093-4.215-3.515.682-6.73,2.436-9.841,4.133-3.993,2.177-8.122,4.429-12.959,4.478h-.208"
              transform="translate(0.117 14.339)"/>
        <path class="a"
              d="M59.008,102.721c-5.435,0-10.509-2.121-15.419-4.174-4.195-1.754-8.533-3.569-13.048-4.028-5.881-.606-11.3,1.76-16.542,4.04-4.218,1.836-8.581,3.734-13.245,4.16L.7,102.138c4.57-.416,8.889-2.3,13.066-4.113,5.307-2.311,10.8-4.7,16.833-4.086,4.6.469,8.979,2.3,13.213,4.07,4.935,2.064,10.035,4.232,15.45,4.128,4.952-.063,9.123-2.59,13.158-5.033,3.261-1.977,6.632-4.02,10.443-4.811,7.11-1.475,13.932,1.727,20.527,4.826,4.7,2.211,9.564,4.5,14.446,5.019l-.063.581c-4.977-.535-9.885-2.841-14.631-5.072-6.507-3.059-13.234-6.225-20.159-4.783-3.713.77-7.042,2.787-10.26,4.737-4.1,2.484-8.342,5.053-13.453,5.119h-.264"
              transform="translate(0.117 15.279)"/>
        <path class="a"
              d="M102.812,117.618h-.583c0-3.2.118-6.553.231-9.794.252-7.218.513-14.679-.433-21.625-.591-4.336-2.615-8.369-4.572-12.27-2.332-4.651-4.745-9.459-4.781-14.847s2.425-10.23,4.8-14.91c1.774-3.486,3.607-7.092,4.369-10.87,1.426-7.081,1.053-15.111.694-22.875-.161-3.455-.313-6.719-.313-9.886h.583c0,3.153.15,6.411.311,9.859.362,7.8.736,15.865-.7,23.018-.777,3.857-2.629,7.5-4.42,11.02-2.349,4.617-4.777,9.393-4.742,14.642s2.416,10,4.72,14.588c1.978,3.943,4.023,8.021,4.628,12.453.953,6.995.692,14.483.437,21.724-.112,3.236-.23,6.583-.23,9.774"
              transform="translate(15.404 0.09)"/>
        <path class="a"
              d="M95.491,115.553h-.583c.009-8.987-.1-19.522-1.026-29.526-.373-4.055-1.778-7.983-3.136-11.781-1.6-4.465-3.248-9.082-3.253-13.961-.006-5.493,1.971-10.721,3.881-15.778a57.8,57.8,0,0,0,3.6-12.12c.84-5.972.194-12.181-.431-18.184a115.91,115.91,0,0,1-.834-12.078h.583a115.656,115.656,0,0,0,.83,12.017c.629,6.039,1.279,12.283.429,18.326a58.253,58.253,0,0,1-3.63,12.245c-1.893,5.008-3.85,10.186-3.844,15.57,0,4.778,1.639,9.347,3.219,13.766,1.37,3.832,2.787,7.8,3.167,11.923.924,10.027,1.038,20.58,1.029,29.58"
              transform="translate(14.543 0.353)"/>
        <path class="a"
              d="M87,111.16a120.405,120.405,0,0,0-1.4-12.833,106.91,106.91,0,0,1-1.444-14.584c-.021-2.652-.086-5.353-.148-7.964-.1-4.26-.209-8.666-.125-13a104.379,104.379,0,0,1,2.161-16.811c.788-4.279,1.6-8.7,1.965-13.108.449-5.475-.97-10.56-2.344-15.478A58.276,58.276,0,0,1,83.242,5.536l.582-.04A57.828,57.828,0,0,0,86.23,17.228c1.387,4.967,2.82,10.1,2.363,15.682a132.782,132.782,0,0,1-1.973,13.165,104.106,104.106,0,0,0-2.15,16.717c-.084,4.32.022,8.719.125,12.973.062,2.615.127,5.317.148,7.973a106.632,106.632,0,0,0,1.438,14.5,120.821,120.821,0,0,1,1.408,12.894Z"
              transform="translate(13.836 0.914)"/>
        <path class="a"
              d="M80.01,107.1a50.5,50.5,0,0,0-2.269-10.253c-1.406-4.777-2.862-9.716-2.194-14.691a29.558,29.558,0,0,1,2.666-8.039C79.46,71.3,80.75,68.4,80.943,65.1c.6-10.169.938-21.079,1.011-32.425.029-4.318-.143-7.942-2.58-11.993-.512-.85-1.005-1.623-1.473-2.357-1.921-3.012-3.438-5.391-4.02-9.642l.577-.078c.566,4.124,2.053,6.455,3.934,9.407.471.737.967,1.515,1.481,2.371,2.511,4.174,2.692,8.038,2.664,12.3-.073,11.358-.414,22.277-1.012,32.458-.2,3.4-1.511,6.355-2.779,9.213a29.151,29.151,0,0,0-2.622,7.881c-.651,4.851.786,9.73,2.176,14.448a51.043,51.043,0,0,1,2.292,10.375Z"
              transform="translate(12.28 1.431)"/>
        <path class="a"
              d="M73.24,106.026a43.253,43.253,0,0,0-2.5-10.153c-1.427-4.279-2.9-8.7-2.5-13.348.293-3.346,1.949-5.884,3.55-8.338,1.639-2.509,3.331-5.1,3.537-8.565.455-7.639.311-15.5.173-23.107-.065-3.58-.133-7.284-.136-10.9,0-3.929-.2-7.2-2.583-10.515-.7-.97-1.349-1.79-1.98-2.583-2.061-2.594-3.688-4.642-4.311-9l.577-.082c.6,4.2,2.106,6.1,4.19,8.72.636.8,1.291,1.625,2,2.606,2.488,3.458,2.688,6.819,2.693,10.854,0,3.613.071,7.313.136,10.891.139,7.617.282,15.491-.174,23.152-.215,3.616-1.951,6.278-3.63,8.85-1.634,2.5-3.178,4.869-3.458,8.07-.394,4.524,1.064,8.891,2.472,13.113a43.678,43.678,0,0,1,2.53,10.292Z"
              transform="translate(11.051 1.568)"/>
        <path class="a"
              d="M66.76,108.92a65.093,65.093,0,0,0-1.9-10.8c-1.111-4.754-2.26-9.67-1.89-14.586a32.9,32.9,0,0,1,2.672-9.558c1.24-3.15,2.523-6.407,2.675-10,.353-8.257.234-16.721.119-24.907-.033-2.39-.066-4.777-.089-7.157-.041-4.38-.435-7.892-2.269-11.853-.216-.468-.429-.924-.64-1.373-1.759-3.754-3.278-6.995-3.749-11.418l.58-.062c.461,4.327,1.96,7.527,3.7,11.233.211.45.426.906.643,1.375a27.624,27.624,0,0,1,2.322,12.092c.022,2.38.056,4.766.089,7.156.115,8.193.234,16.665-.119,24.938-.157,3.686-1.458,6.989-2.715,10.185a32.4,32.4,0,0,0-2.633,9.389c-.364,4.826.774,9.7,1.876,14.409a65.592,65.592,0,0,1,1.909,10.9Z"
              transform="translate(10.254 1.199)"/>
        <path class="a"
              d="M60.405,113.48c-.064-4.264-.5-8.586-.918-12.764A120.059,120.059,0,0,1,58.6,84.529a94.8,94.8,0,0,1,1.272-11.112,87.144,87.144,0,0,0,1.29-11.97c.1-6.245.064-12.6.033-18.746-.016-3.235-.034-6.469-.033-9.7a98.251,98.251,0,0,0-1.588-15.315A108.1,108.1,0,0,1,58,3.731l.583-.015A107.549,107.549,0,0,0,60.149,17.6a98.686,98.686,0,0,1,1.6,15.4c0,3.232.016,6.464.033,9.7.031,6.148.063,12.506-.033,18.757a87.637,87.637,0,0,1-1.3,12.051,94.282,94.282,0,0,0-1.265,11.042,119.655,119.655,0,0,0,.885,16.109c.421,4.191.856,8.524.921,12.813Z"
              transform="translate(9.64 0.618)"/>
        <path class="a"
              d="M54.577,117.048l-.583,0c.135-18-.038-36.309-.208-54.018-.194-20.345-.394-41.381-.125-62.05l.583.008c-.268,20.662-.069,41.695.125,62.036.169,17.712.343,36.027.208,54.028"
              transform="translate(8.898 0.162)"/>
        <path class="a"
              d="M47.839,117.213l-.583,0c.2-34.283.15-69.153.1-102.874L47.336.54h.583l.02,13.8c.05,33.722.1,68.593-.1,102.879"
              transform="translate(7.855 0.09)"/>
        <path class="a"
              d="M40.337,114.671c-.051-4.784-.387-9.643-.711-14.343-.4-5.839-.819-11.877-.7-17.833.078-3.836.542-7.685.992-11.409a108.675,108.675,0,0,0,1-12.011c.1-11.476.063-23.151.028-34.443-.024-7.9-.049-16.065-.028-24.093H41.5c-.021,8.027,0,16.192.028,24.089.035,11.295.07,22.972-.028,34.45a108.938,108.938,0,0,1-1,12.076c-.448,3.709-.911,7.544-.988,11.351-.121,5.93.3,11.955.7,17.781.324,4.708.66,9.577.713,14.376Z"
              transform="translate(6.467 0.09)"/>
        <path class="a"
              d="M33.325,111.422a134,134,0,0,0-1.5-13.709c-.977-6.777-1.987-13.786-1.38-20.555a40.157,40.157,0,0,1,2.029-8.536,35.251,35.251,0,0,0,2.074-9.554c.217-6.859-.047-13.872-.3-20.655-.15-4.041-.308-8.219-.362-12.318-.063-4.893.136-9.849.33-14.643.145-3.576.294-7.274.332-10.917l.583.006C35.095,4.2,34.945,7.9,34.8,11.478c-.194,4.785-.393,9.732-.33,14.61.054,4.091.21,8.266.362,12.3.254,6.792.518,13.816.3,20.7a35.687,35.687,0,0,1-2.1,9.711,39.689,39.689,0,0,0-2,8.412c-.6,6.7.4,13.675,1.375,20.419A134.043,134.043,0,0,1,33.909,111.4Z"
              transform="translate(5.03 0.089)"/>
        <path class="a"
              d="M26.425,109.359a159.448,159.448,0,0,0-2.209-17.945L23.989,90c-.135-.845-.286-1.712-.44-2.595-.769-4.418-1.641-9.424-.9-13.864A20.671,20.671,0,0,1,25.308,66.9c1.339-2.444,2.6-4.753,2.721-7.924.278-7.447-.065-15.069-.4-22.438-.2-4.53-.414-9.212-.478-13.8-.058-4.148.2-8.328.451-12.37.2-3.216.407-6.542.451-9.831l.583.008c-.045,3.3-.252,6.636-.452,9.859-.25,4.03-.508,8.2-.45,12.326.063,4.58.274,9.256.477,13.781.332,7.382.675,15.015.4,22.486-.122,3.309-1.48,5.787-2.793,8.183a20.22,20.22,0,0,0-2.6,6.462c-.722,4.342.141,9.3.9,13.668.154.885.306,1.755.442,2.6l.227,1.409a161.957,161.957,0,0,1,2.215,18.011Z"
              transform="translate(3.718 0.089)"/>
        <path class="a"
              d="M19.828,110.124a108.964,108.964,0,0,0-1.854-13.649c-1.262-7.07-2.566-14.378-1.656-21.2a22.6,22.6,0,0,1,2.9-7.652c1.43-2.7,2.779-5.254,2.927-8.553a165.69,165.69,0,0,0-.8-20.5c-.37-4.591-.752-9.339-.857-13.995s.154-9.34.4-13.879c.182-3.325.371-6.763.416-10.154l.583.008c-.045,3.4-.234,6.847-.418,10.179-.248,4.527-.506,9.21-.4,13.834s.486,9.378.855,13.961a166.042,166.042,0,0,1,.8,20.576c-.154,3.431-1.6,6.159-2.994,8.8a22.2,22.2,0,0,0-2.839,7.458c-.9,6.733.4,14,1.653,21.022A109.02,109.02,0,0,1,20.41,110.1Z"
              transform="translate(2.662 0.089)"/>
        <path class="a"
              d="M13.415,113.016c-.11-4.364-.64-8.875-1.155-13.239-.765-6.493-1.556-13.209-1-19.7.317-3.709,1.847-6.983,3.327-10.151,1.585-3.391,3.223-6.9,3.325-10.9.154-6.022-.954-12.106-2.025-17.99a116.6,116.6,0,0,1-1.956-13.884c-.329-5.606-.1-11.333.115-16.872.126-3.2.257-6.506.278-9.745l.583,0c-.021,3.248-.153,6.561-.278,9.765-.219,5.524-.444,11.236-.117,16.814a116,116,0,0,0,1.948,13.814c1.076,5.913,2.189,12.026,2.034,18.109-.1,4.123-1.77,7.685-3.38,11.13-1.458,3.121-2.966,6.35-3.275,9.955-.55,6.431.238,13.116,1,19.581.517,4.376,1.05,8.9,1.159,13.293Z"
              transform="translate(1.841 0.089)"/>
        <path class="a"
              d="M7.641,116.148H7.058c0-3.908-.243-7.97-.482-11.9-.408-6.726-.83-13.679-.045-20.311.479-4.057,2.109-7.829,3.683-11.476,1.827-4.233,3.717-8.61,3.758-13.388.047-5.418-1.7-10.774-3.388-15.953A71.638,71.638,0,0,1,7.513,31.562C6.508,24.723,6.8,17.41,7.084,10.339c.131-3.244.265-6.6.265-9.8h.583c0,3.211-.134,6.572-.265,9.822-.282,7.046-.574,14.33.423,21.115a71.171,71.171,0,0,0,3.048,11.465c1.7,5.223,3.464,10.625,3.416,16.138-.041,4.9-1.956,9.327-3.805,13.614C9.191,76.3,7.58,80.035,7.109,84.007c-.778,6.581-.357,13.508.049,20.208.24,3.937.486,8.008.483,11.933"
              transform="translate(1.012 0.09)"/>
        <path class="a"
              d="M1.137,117.618H.554c0-3.225-.1-6.577-.2-9.82-.216-7.19-.44-14.624.371-21.673.5-4.364,2.223-8.482,3.887-12.465,1.939-4.64,3.943-9.438,3.972-14.582S6.575,49.122,4.6,44.468A50.542,50.542,0,0,1,.884,33.407C-.349,26.147-.028,18.191.282,10.5.422,7.033.554,3.761.554.54h.583c0,3.233-.132,6.51-.272,9.98-.309,7.664-.629,15.59.594,22.789A50,50,0,0,0,5.138,44.24c2,4.708,4.062,9.576,4.032,14.841s-2.056,10.111-4.018,14.8C3.5,77.831,1.8,81.91,1.307,86.193.5,93.2.724,100.612.939,107.78c.1,3.248.2,6.6.2,9.837"
              transform="translate(0 0.09)"/>
    </g>
</svg>
