<svg xmlns="http://www.w3.org/2000/svg" xmlns:xlink="http://www.w3.org/1999/xlink" width="142.782" height="142.782"
     viewBox="0 0 142.782 142.782">
    <defs>
        <style>.a{fill:#fff;}.b{clip-path:url(#a);}</style>
        <clipPath id="a">
            <rect class="a" width="100.962" height="100.962"/>
        </clipPath>
    </defs>
    <g transform="translate(0 71.391) rotate(-45)">
        <rect class="a" width="100.484" height="0.477" transform="translate(0.239 0.001)"/>
        <g class="b">
            <path class="a" d="M50.493,7.487q-25.121,0-50.243,0V7q50.245.009,100.484,0v.478q-25.12,0-50.241,0"
                  transform="translate(-0.011 -0.305)"/>
            <path class="a"
                  d="M.255,14.462l-.011-.478c34.956-.736,67.829-.735,100.495,0l-.011.478c-32.658-.736-65.523-.736-100.473,0"
                  transform="translate(-0.011 -0.585)"/>
            <path class="a"
                  d="M.262,21.267l-.025-.477c7.983-.423,16.129-1.4,24-2.339,11.129-1.331,22.634-2.718,33.935-2.561,7.97.1,15.93,1.343,23.627,2.54,6.182.962,12.573,1.957,18.944,2.361l-.03.477c-6.393-.406-12.8-1.4-18.988-2.365-7.681-1.195-15.624-2.43-23.56-2.535C46.9,16.217,35.412,17.595,24.3,18.925c-7.884.943-16.037,1.919-24.036,2.341"
                  transform="translate(-0.01 -0.692)"/>
            <path class="a"
                  d="M100.195,28.153c-6.761,0-13.241-1.925-19.513-3.789-5.905-1.754-12.012-3.568-18.344-3.776-12.344-.408-25.173,1.834-37.581,4C16.685,26,8.338,27.452.269,28.148l-.041-.476c8.048-.694,16.385-2.149,24.447-3.555,12.432-2.169,25.285-4.412,37.679-4.007,6.393.209,12.529,2.032,18.464,3.8,6.4,1.9,13.035,3.876,19.911,3.766l.007.478c-.181,0-.362,0-.541,0"
                  transform="translate(-0.01 -0.874)"/>
            <path class="a"
                  d="M100.283,35.036c-6.329,0-12.045-2.573-17.578-5.063C77.549,27.65,72.216,25.251,66.361,24.9c-13.116-.789-27.255,2.362-40.926,5.408A249.96,249.96,0,0,1,.276,35.03l-.055-.475a249.9,249.9,0,0,0,25.11-4.715c13.7-3.052,27.872-6.21,41.059-5.418,5.942.357,11.316,2.776,16.512,5.115,5.615,2.528,11.4,5.138,17.825,5.018l.01.478c-.151,0-.3,0-.453,0"
                  transform="translate(-0.01 -1.058)"/>
            <path class="a"
                  d="M100.155,41.945c-5.933,0-10.928-3.09-15.766-6.083-4.524-2.8-9.2-5.693-14.715-6.177C56.129,28.5,40.883,32.442,26.141,36.26,17.053,38.614,8.469,40.837.28,41.933l-.063-.473c8.16-1.093,16.73-3.312,25.8-5.662,14.782-3.828,30.068-7.784,43.7-6.588,5.627.494,10.354,3.418,14.924,6.246,5.162,3.194,10.061,6.224,16.084,6l.016.478q-.294.01-.585.01"
                  transform="translate(-0.009 -1.263)"/>
            <path class="a"
                  d="M99.812,48.907c-5.559,0-9.861-3.25-14.4-6.68-4.125-3.117-8.391-6.338-13.7-6.9-13.7-1.454-29.54,2.981-44.86,7.267C17.456,45.221,8.583,47.7.282,48.874L.215,48.4c8.269-1.168,17.127-3.646,26.506-6.269,15.362-4.3,31.246-8.742,45.039-7.281,5.442.577,9.761,3.839,13.939,7,4.719,3.565,9.179,6.942,15.018,6.554l.031.477c-.316.021-.627.031-.935.031"
                  transform="translate(-0.009 -1.506)"/>
            <path class="a"
                  d="M99.812,55.91c-5.559,0-9.861-3.249-14.4-6.679-4.125-3.118-8.391-6.339-13.7-6.9-13.7-1.453-29.54,2.98-44.86,7.267C17.456,52.224,8.583,54.707.282,55.878L.215,55.4c8.269-1.169,17.127-3.647,26.506-6.27,15.362-4.3,31.246-8.741,45.039-7.28,5.442.577,9.761,3.839,13.939,7,4.719,3.565,9.179,6.936,15.018,6.554l.031.477c-.316.021-.627.03-.935.03"
                  transform="translate(-0.009 -1.811)"/>
            <path class="a"
                  d="M100.155,62.956c-5.933,0-10.928-3.09-15.766-6.083-4.523-2.8-9.2-5.693-14.714-6.177C56.126,49.5,40.883,53.453,26.141,57.271,17.053,59.625,8.47,61.848.281,62.944L.217,62.47c8.16-1.093,16.731-3.312,25.8-5.662C40.8,52.98,56.09,49.023,69.717,50.22c5.627.494,10.353,3.418,14.923,6.246,5.162,3.194,10.037,6.215,16.084,6l.017.478c-.2.007-.392.011-.586.011"
                  transform="translate(-0.009 -2.178)"/>
            <path class="a"
                  d="M100.282,70.055c-6.329,0-12.044-2.573-17.577-5.063-5.157-2.322-10.489-4.722-16.345-5.073-13.116-.786-27.254,2.362-40.925,5.409A250.5,250.5,0,0,1,.276,70.05l-.055-.475a250.2,250.2,0,0,0,25.11-4.716c13.7-3.051,27.871-6.21,41.058-5.417,5.942.356,11.316,2.775,16.512,5.114,5.616,2.529,11.447,5.138,17.825,5.018l.01.478c-.151,0-.3,0-.454,0"
                  transform="translate(-0.01 -2.584)"/>
            <path class="a"
                  d="M100.195,77.18c-6.761,0-13.24-1.926-19.512-3.789-5.906-1.755-12.012-3.568-18.345-3.776-12.345-.4-25.173,1.835-37.582,4C16.685,75.023,8.338,76.479.269,77.174L.228,76.7C8.276,76,16.613,74.549,24.675,73.142c12.432-2.168,25.285-4.406,37.679-4.007,6.393.209,12.529,2.032,18.464,3.8,6.4,1.9,13.019,3.868,19.911,3.765l.007.478c-.181,0-.362,0-.541,0"
                  transform="translate(-0.01 -3.009)"/>
            <path class="a"
                  d="M.262,84.3l-.025-.477c7.983-.422,16.128-1.4,24-2.339,11.13-1.332,22.639-2.71,33.936-2.561,7.97.1,15.93,1.342,23.627,2.539,6.182.962,12.573,1.957,18.944,2.361l-.03.477c-6.393-.406-12.8-1.4-18.988-2.365-7.681-1.195-15.624-2.43-23.56-2.534C46.9,79.258,35.412,80.63,24.3,81.96,16.414,82.9,8.262,83.879.262,84.3"
                  transform="translate(-0.01 -3.437)"/>
            <path class="a"
                  d="M100.728,91.505c-32.657-.734-65.521-.734-100.473,0l-.011-.478c34.957-.736,67.829-.736,100.494,0Z"
                  transform="translate(-0.011 -3.941)"/>
            <path class="a" d="M50.493,98.539q-25.121,0-50.243,0v-.478q50.245.009,100.484,0v.478q-25.12,0-50.241,0"
                  transform="translate(-0.011 -4.271)"/>
            <rect class="a" width="100.484" height="0.478" transform="translate(0.239 100.484)"/>
            <rect class="a" width="0.478" height="100.484" transform="translate(100.484 0.239)"/>
            <path class="a" d="M98.056,100.734q-.014-50.243,0-100.484h.478q-.014,50.239,0,100.484Z"
                  transform="translate(-4.271 -0.011)"/>
            <path class="a"
                  d="M91.53,100.742l-.478-.017c.264-7.928,1.11-15.949,1.928-23.707,1-9.5,2.037-19.329,2.008-29.035a233.226,233.226,0,0,0-2-25.818C92.161,15.008,91.308,7.606,91.052.258L91.53.242c.255,7.328,1.107,14.72,1.93,21.868a233.693,233.693,0,0,1,2.006,25.871c.03,9.732-1.007,19.572-2.01,29.087-.817,7.75-1.662,15.763-1.925,23.674"
                  transform="translate(-3.966 -0.011)"/>
            <path class="a"
                  d="M84.525,100.754l-.476-.041a221.758,221.758,0,0,1,3.67-23.179c2.039-10.474,4.147-21.3,4.011-31.939-.111-8.6-2.077-17.115-3.98-25.347A155.444,155.444,0,0,1,84.049.273l.476-.046A155,155,0,0,0,88.216,20.14C90.124,28.4,92.1,36.934,92.208,45.588c.137,10.683-1.977,21.538-4.02,32.036a221.374,221.374,0,0,0-3.663,23.13"
                  transform="translate(-3.661 -0.01)"/>
            <path class="a"
                  d="M77.519,100.766l-.473-.067c1.079-7.6,3.347-15.516,5.54-23.178,3.278-11.448,6.667-23.285,6.313-34.585-.263-8.413-3.277-16.423-6.191-24.168-2.239-5.951-4.554-12.1-5.66-18.478l.472-.082c1.1,6.33,3.4,12.462,5.636,18.391,2.929,7.784,5.957,15.83,6.222,24.322.357,11.375-3.043,23.248-6.331,34.731C80.857,85.3,78.594,93.2,77.519,100.766"
                  transform="translate(-3.356 -0.009)"/>
            <path class="a"
                  d="M70.514,100.776l-.47-.09c1.432-7.455,4.269-15.193,7.272-23.388,4.552-12.418,9.259-25.261,8.61-36.927-.459-8.26-4.265-15.305-8.292-22.763-2.96-5.479-6.021-11.146-7.587-17.3l.464-.118c1.55,6.1,4.6,11.737,7.543,17.192,3.876,7.176,7.883,14.6,8.349,22.963.655,11.765-4.07,24.654-8.639,37.12-3,8.175-5.827,15.9-7.251,23.312"
                  transform="translate(-3.051 -0.008)"/>
            <path class="a"
                  d="M63.508,100.784l-.466-.106c1.671-7.354,5.065-15.309,8.658-23.732,5.641-13.222,11.474-26.894,10.542-38.687-.648-8.19-5.166-14.628-9.95-21.443C68.708,11.709,65,6.429,63.047.32L63.5.175c1.932,6.039,5.617,11.289,9.18,16.365C77.505,23.412,82.06,29.9,82.718,38.221,83.66,50.131,77.8,63.859,72.14,77.133c-3.585,8.4-6.97,16.338-8.632,23.651"
                  transform="translate(-2.746 -0.008)"/>
            <path class="a"
                  d="M56.5,100.787l-.465-.112c1.786-7.418,5.569-15.607,9.575-24.277,6.277-13.585,12.769-27.633,11.663-39.436-.766-8.186-5.67-14.134-10.861-20.432-4.029-4.887-8.194-9.94-10.37-16.2L56.5.169c2.148,6.182,6.286,11.2,10.288,16.057,5.239,6.356,10.188,12.358,10.968,20.691,1.117,11.933-5.4,26.039-11.7,39.682-4,8.648-7.77,16.816-9.544,24.188"
                  transform="translate(-2.441 -0.007)"/>
            <path class="a"
                  d="M49.5,100.787l-.465-.112C50.821,93.257,54.6,85.068,58.61,76.4c6.277-13.585,12.769-27.633,11.663-39.436-.766-8.186-5.67-14.134-10.861-20.432-4.029-4.887-8.194-9.94-10.37-16.2l.451-.157c2.148,6.182,6.286,11.2,10.288,16.057,5.239,6.356,10.188,12.358,10.968,20.691,1.117,11.933-5.4,26.039-11.7,39.682-4,8.648-7.77,16.816-9.544,24.188"
                  transform="translate(-2.136 -0.007)"/>
            <path class="a"
                  d="M42.5,100.784l-.466-.106c1.671-7.354,5.065-15.31,8.658-23.733C56.33,63.723,62.163,50.051,61.231,38.259c-.648-8.19-5.167-14.628-9.95-21.443C47.7,11.709,43.991,6.429,42.036.32l.456-.145c1.932,6.039,5.617,11.289,9.18,16.366,4.822,6.871,9.377,13.361,10.035,21.681.942,11.91-4.914,25.637-10.578,38.911-3.585,8.4-6.971,16.339-8.632,23.652"
                  transform="translate(-1.831 -0.008)"/>
            <path class="a"
                  d="M35.495,100.776l-.47-.09C36.457,93.231,39.294,85.493,42.3,77.3c4.553-12.419,9.259-25.262,8.611-36.928-.46-8.26-4.265-15.3-8.292-22.762-2.96-5.48-6.021-11.147-7.587-17.3l.464-.118c1.55,6.1,4.6,11.737,7.543,17.193,3.876,7.175,7.883,14.6,8.349,22.962.654,11.765-4.07,24.654-8.639,37.12-3,8.175-5.827,15.9-7.251,23.312"
                  transform="translate(-1.526 -0.008)"/>
            <path class="a"
                  d="M28.492,100.766l-.473-.067c1.079-7.6,3.347-15.517,5.54-23.179,3.278-11.446,6.666-23.283,6.313-34.583-.263-8.413-3.277-16.423-6.191-24.168-2.239-5.951-4.555-12.1-5.66-18.478l.472-.082c1.1,6.33,3.4,12.462,5.636,18.392,2.928,7.783,5.956,15.829,6.222,24.321.356,11.375-3.043,23.248-6.331,34.73C31.83,85.3,29.567,93.2,28.492,100.766"
                  transform="translate(-1.22 -0.009)"/>
            <path class="a"
                  d="M21.489,100.754l-.476-.041a221.759,221.759,0,0,1,3.67-23.179c2.039-10.474,4.147-21.3,4.011-31.939-.111-8.6-2.077-17.115-3.98-25.347A155.444,155.444,0,0,1,21.013.273l.476-.046A155,155,0,0,0,25.18,20.14c1.908,8.257,3.881,16.794,3.992,25.448.137,10.683-1.977,21.538-4.02,32.036a221.373,221.373,0,0,0-3.663,23.13"
                  transform="translate(-0.915 -0.01)"/>
            <path class="a"
                  d="M14.486,100.742l-.478-.017c.264-7.928,1.11-15.951,1.928-23.71,1-9.5,2.037-19.327,2.008-29.032a233.228,233.228,0,0,0-2-25.818C15.117,15.008,14.264,7.606,14.008.258l.478-.016c.255,7.328,1.107,14.72,1.93,21.868a233.692,233.692,0,0,1,2.006,25.871c.03,9.731-1.007,19.57-2.01,29.085-.817,7.751-1.662,15.765-1.925,23.677"
                  transform="translate(-0.61 -0.011)"/>
            <path class="a" d="M7,100.734Q6.991,50.491,7,.25h.478q-.013,50.239,0,100.484Z"
                  transform="translate(-0.305 -0.011)"/>
            <rect class="a" width="0.478" height="100.484" transform="translate(0 0.239)"/>
        </g>
    </g>
</svg>
