<svg xmlns="http://www.w3.org/2000/svg" xmlns:xlink="http://www.w3.org/1999/xlink" width="112.777" height="118"
     viewBox="0 0 112.777 118">
    <defs>
        <style>.a{fill:#fff;}.b{clip-path:url(#a);}</style>
        <clipPath id="a">
            <rect class="a" width="112.777" height="118"/>
        </clipPath>
    </defs>
    <g class="b">
        <path class="a"
              d="M96.2,17.094C85.956,6.433,71.023.352,56.387.012,41.542-.332,26.946,7.065,16.456,17.094,5.9,27.186-.036,42.214,0,56.4c.044,17.267,4.129,51.381,18.552,60.016,12.887,7.715,29.479-15.232,43.715-15.579,9.845-.24,23.706,5.423,32.389-2.474,10.653-9.688,17.95-27.306,18.118-41.963.166-14.481-6.62-28.945-16.575-39.306m14.948,42.22a22.845,22.845,0,0,0,.935-3.178c0,.091,0,.181,0,.271a47.694,47.694,0,0,1-.984,9.163,34.664,34.664,0,0,0,.048-6.256M88.242,101.272a16.1,16.1,0,0,1-2.495.633c.006-.035.01-.071.013-.109a18.711,18.711,0,0,0,2.481-.524m-59.66,14.212a13.011,13.011,0,0,0,5.536-.987,19.683,19.683,0,0,1-8.989,2.632,17.53,17.53,0,0,0,3.453-1.645M91.94,91.773a39.035,39.035,0,0,0,6.872-5.505A26.077,26.077,0,0,1,97.768,91.9a29.388,29.388,0,0,1-5.708,4.242,23.045,23.045,0,0,0-.12-4.372M23.39,15.261a17.359,17.359,0,0,1,1.234-1.508,23.207,23.207,0,0,1,6.277-.408l.1.006c-.028.041-.055.081-.081.121a37.313,37.313,0,0,0-7.528,1.789M13.6,25.488a8.924,8.924,0,0,1,.528-2.181A42.287,42.287,0,0,1,21,18.681a6.185,6.185,0,0,0-.188,1.169A53.565,53.565,0,0,0,13.6,25.488M11.645,55.179a68.5,68.5,0,0,0-.732,11.563,27.117,27.117,0,0,1-5.231-4.588,49.1,49.1,0,0,1,1.43-10.274,29.6,29.6,0,0,0,4.533,3.3M38.766,11.643A64.685,64.685,0,0,1,48.8,7.952a4.46,4.46,0,0,1,.3,1.375,67.237,67.237,0,0,0-10.326,2.315M82.628,72.369c-1.687-1.878-3.607-3.642-5.541-5.9a138.793,138.793,0,0,0,8.744-10.9,73.051,73.051,0,0,1,5.713,6.563,91.937,91.937,0,0,1-8.916,10.236M22.9,36.955q.38.112.771.215a25.038,25.038,0,0,0,3.653.673c-.473,3.6-.788,7.347-.933,11.1a39.093,39.093,0,0,1-5.051-1.374c-.33-.115-.656-.231-.976-.352A89.935,89.935,0,0,1,22.9,36.955M76.482,67.144c1.939,2.253,3.875,3.949,5.562,5.791a50.819,50.819,0,0,1-9.78,7.452A70.475,70.475,0,0,1,66.6,75.856a56.416,56.416,0,0,0,9.884-8.712m-14.3-35.516a68.992,68.992,0,0,1-5.478,6.552c-2.134-3.227-4.269-6.4-6.373-9.243A43.334,43.334,0,0,0,54.3,24.475c2.633,2.134,5.274,4.637,7.89,7.152M60.418,67.609c-1.706-3.064-3.409-6.525-5.076-10.209a63.09,63.09,0,0,0,8.083-7.621c2.117,3.134,4.221,6.129,6.263,8.868a72.656,72.656,0,0,1-9.27,8.962M55,56.632c-1.651-3.8-3.271-7.788-4.845-11.629a43.76,43.76,0,0,0,6.468-5.547c2.127,3.258,4.263,6.543,6.368,9.674A62.414,62.414,0,0,1,55,56.632M42.565,48.924a31.48,31.48,0,0,0,7-3.525c1.573,3.87,3.184,7.869,4.818,11.666a31.726,31.726,0,0,1-8.553,4.251c-1.162-4.032-2.253-8.263-3.268-12.392m12.164,8.931c1.648,3.79,3.352,7.178,5.054,10.245a27.408,27.408,0,0,1-9.9,5.07,79.254,79.254,0,0,1-3.808-11.013,31.751,31.751,0,0,0,8.652-4.3M56.16,38.749a43.415,43.415,0,0,1-6.354,5.41c-1.581-3.855-3.132-7.589-4.626-10.995a36.639,36.639,0,0,0,4.633-3.726c2.1,2.863,4.222,6.057,6.348,9.311M42.345,48.022c-1.008-4.135-1.939-8.156-2.784-11.867a29.455,29.455,0,0,0,5.065-2.625c1.488,3.424,3.029,7.166,4.6,11.023a31.544,31.544,0,0,1-6.878,3.469M45.2,61.5a28.529,28.529,0,0,1-8.791,1.062c-.689-3.939-1.253-8.06-1.694-12.118a27.86,27.86,0,0,0,7.241-1.321c1.006,4.123,2.09,8.348,3.245,12.377m.243.839a76.1,76.1,0,0,0,3.8,10.97,37.808,37.808,0,0,1-9.98.478,57.05,57.05,0,0,1-2.706-10.408,28.509,28.509,0,0,0,8.89-1.04m14.685,6.383a29.782,29.782,0,0,0,5.452,7.187c-3.431,2.287-7.017,4.421-10.46,4.849a26.1,26.1,0,0,1-4.947-6.993,26.994,26.994,0,0,0,9.955-5.043m5.843,7.547a67.282,67.282,0,0,0,5.695,4.444A38.214,38.214,0,0,1,61.358,84.53a20.069,20.069,0,0,1-5.86-3.409c3.451-.4,7.048-2.582,10.478-4.847m.233-.784a31.161,31.161,0,0,1-5.439-7.255,72.971,72.971,0,0,0,9.338-9.027c2.064,2.749,4.076,5.25,5.98,7.478a57.63,57.63,0,0,1-9.88,8.8m-2.649-27c-2.115-3.118-4.259-6.382-6.391-9.612a71.392,71.392,0,0,0,5.574-6.715c2.6,2.514,5.186,5.1,7.7,7.631a100.243,100.243,0,0,1-6.885,8.7M34.624,49.567c-.424-4.06-.727-8.065-.91-11.841a25.779,25.779,0,0,0,5.269-1.348c.838,3.72,1.761,7.736,2.757,11.848a27.822,27.822,0,0,1-7.116,1.341M33.111,37.807c.177,3.764.473,7.752.891,11.789a31.263,31.263,0,0,1-3.436-.072,34.738,34.738,0,0,1-3.548-.461c.142-3.777.454-7.545.924-11.161a25.4,25.4,0,0,0,2.714.08c.8-.018,1.629-.075,2.455-.175M26.99,49.868a35.046,35.046,0,0,0,3.683.506,31.087,31.087,0,0,0,3.421.1c.435,4.037.993,8.14,1.677,12.068a36.515,36.515,0,0,1-4.21-.474c-1.5-.253-2.978-.592-4.408-.983-.229-3.646-.281-7.443-.164-11.214m4.7,12.989a36.679,36.679,0,0,0,4.225.5,57.541,57.541,0,0,0,2.7,10.4c-1.6-.1-3.212-.249-4.792-.416-1.73-.184-3.446-.4-5.106-.642A75.47,75.47,0,0,1,27.2,61.834c1.454.405,2.961.757,4.487,1.023M49.539,73.909A25.824,25.824,0,0,0,54.5,80.837c-3.532.4-7.109.561-10.705.972a29.009,29.009,0,0,1-4.285-7.414,40.37,40.37,0,0,0,10.033-.485M70.281,57.972c-2.048-2.735-4.157-5.718-6.281-8.834a101.685,101.685,0,0,0,6.962-8.82c2.513,2.534,4.967,5.025,7.3,7.4a127.437,127.437,0,0,1-7.983,10.251m-7.6-27.016c-2.616-2.489-5.261-4.987-7.907-7.1a44.861,44.861,0,0,0,3.048-4.638c3.046,1.5,6.1,3.217,9.1,5.054a64.94,64.94,0,0,1-4.244,6.688M48.244,14.891a15.251,15.251,0,0,0,1.021-2.31A52.131,52.131,0,0,1,59.43,13.926a27.079,27.079,0,0,1-1.9,4.276,52.5,52.5,0,0,0-9.282-3.311m8.9,3.991a43.552,43.552,0,0,1-2.98,4.488,69.386,69.386,0,0,0-7.935-5.451,21.383,21.383,0,0,0,1.643-2.373,52.171,52.171,0,0,1,9.273,3.336m-3.455,5.1a42.138,42.138,0,0,1-3.851,4.282,88.421,88.421,0,0,0-6.25-7.515,25.211,25.211,0,0,0,2.181-2.272,68.39,68.39,0,0,1,7.921,5.505m-8.867,8.365c-1.495-3.378-2.951-6.463-4.334-9.167a25.126,25.126,0,0,0,2.6-1.985,88.232,88.232,0,0,1,6.228,7.564,36.283,36.283,0,0,1-4.494,3.588m-5.463,2.913c-.842-3.711-1.6-7.149-2.272-10.217a22.787,22.787,0,0,0,2.879-1.527c1.37,2.706,2.815,5.8,4.3,9.194a29.546,29.546,0,0,1-4.91,2.55m-5.685,1.569c-.165-3.776-.211-7.348-.138-10.6a19.7,19.7,0,0,0,3-.953c.656,3.066,1.409,6.5,2.242,10.209a25.66,25.66,0,0,1-5.109,1.346m-.723-10.477c-.079,3.248-.04,6.8.12,10.563-.839.108-1.683.174-2.506.2-.844.025-1.688.008-2.512-.05a99.88,99.88,0,0,1,1.972-10.392c.517-.011,1.053-.048,1.594-.112.444-.051.889-.121,1.333-.207M27.431,37.02a24.311,24.311,0,0,1-3.7-.645c-.2-.051-.4-.105-.6-.161a83.839,83.839,0,0,1,3.824-9.8c.138.029.277.054.418.078a14.037,14.037,0,0,0,2.033.185A99.885,99.885,0,0,0,27.431,37.02m-4.911-.988a19.63,19.63,0,0,1-3.435-1.444,78.045,78.045,0,0,1,5.354-9.01,10.143,10.143,0,0,0,1.9.694,83.681,83.681,0,0,0-3.819,9.76m-6.482-3.653a72.568,72.568,0,0,1,6.5-8.094,7.26,7.26,0,0,0,1.34.994,78.391,78.391,0,0,0-5.357,8.989,13.084,13.084,0,0,1-2.486-1.89m2.725,2.854a20.3,20.3,0,0,0,3.524,1.529,89.749,89.749,0,0,0-2.541,10.221,34.474,34.474,0,0,1-4.859-2.345,73.715,73.715,0,0,1,3.876-9.4m2.54,13.1a40.1,40.1,0,0,0,5.056,1.412c-.121,3.752-.073,7.529.15,11.161a62.636,62.636,0,0,1-6.175-2.143q-.658-.267-1.3-.539A85.862,85.862,0,0,1,20.23,47.938q.527.2,1.073.393M54.871,81.192a20.2,20.2,0,0,0,5.863,3.47c-3.631.744-7.362.854-11.156,1.945a19.176,19.176,0,0,1-5.45-4.4c3.609-.458,7.2-.64,10.742-1.018M72.053,81c.855.629,1.686,1.257,2.485,1.9.893.723,1.725,1.452,2.493,2.2A37.1,37.1,0,0,1,67.39,87.48c-.906-.523-1.865-1.014-2.872-1.494-.9-.429-1.82-.841-2.748-1.266A38.167,38.167,0,0,0,72.053,81M82.4,73.33c.794.883,1.55,1.776,2.246,2.673a35.993,35.993,0,0,1,2.171,3.115,39.112,39.112,0,0,1-9.232,5.751c-.758-.758-1.577-1.5-2.458-2.233-.8-.666-1.63-1.312-2.486-1.962A50.111,50.111,0,0,0,82.4,73.33m-5.711-7.318c-1.906-2.237-3.921-4.737-5.992-7.48a129.25,129.25,0,0,0,8.042-10.321c2.345,2.394,4.584,4.695,6.656,6.9a138.2,138.2,0,0,1-8.707,10.9m-5.741-26.94c-2.517-2.517-5.109-5.086-7.718-7.585a66.331,66.331,0,0,0,4.311-6.836c2.976,1.846,5.91,3.817,8.728,5.832a91.021,91.021,0,0,1-5.32,8.589M58.2,18.527A28,28,0,0,0,60.131,14.1a82.925,82.925,0,0,1,9.892,3.174,40.454,40.454,0,0,1-2.712,6.27c-3-1.824-6.059-3.523-9.115-5.016M18.2,34.908a73.856,73.856,0,0,0-3.886,9.383,20.49,20.49,0,0,1-3.554-2.74,63.008,63.008,0,0,1,4.885-8.6,14.094,14.094,0,0,0,2.555,1.96M19.616,47.7a85.683,85.683,0,0,0-1.2,10.251,57.483,57.483,0,0,1-6.068-3.079,67.162,67.162,0,0,1,2.331-9.583,36.066,36.066,0,0,0,4.941,2.41M34.02,74c1.6.146,3.219.274,4.834.363a30.137,30.137,0,0,0,4.271,7.527c-1.748.21-3.517.469-5.261.759-1.923.318-3.846.676-5.713,1.013a59.916,59.916,0,0,1-3.269-10.221c1.671.215,3.4.4,5.138.559M49.989,86.822c3.809-1.129,7.547-1.253,11.161-1.974.937.418,1.868.824,2.779,1.246,1.008.467,1.968.945,2.875,1.455-3.406.386-7.027.228-10.859,1.525-1.033-.319-2.1-.652-3.166-1.045a25.588,25.588,0,0,1-2.79-1.207m33-14.05A91.5,91.5,0,0,0,91.9,62.634c.765,1.072,1.484,2.174,2.137,3.292a36.978,36.978,0,0,1,1.993,3.923,72.5,72.5,0,0,1-8.647,8.8,36.6,36.6,0,0,0-2.116-3.1c-.707-.933-1.476-1.86-2.283-2.774M92.093,61.4a71.072,71.072,0,0,0-5.728-6.57,122.734,122.734,0,0,0,6.718-10.373A62.226,62.226,0,0,1,98.993,51.3c-1.9,3.168-4.184,6.44-6.9,10.1m-6.16-7.032c-2.073-2.211-4.316-4.514-6.667-6.905a114.126,114.126,0,0,0,6.2-9.924c2.562,2.123,4.969,4.273,7.155,6.448a121.238,121.238,0,0,1-6.684,10.382m-7.148-7.395c-2.336-2.374-4.794-4.855-7.315-7.381a92.981,92.981,0,0,0,5.379-8.7c2.815,2.029,5.532,4.113,8.084,6.205a112.385,112.385,0,0,1-6.148,9.871M59.66,13.2a52.629,52.629,0,0,0-10.177-1.329A8.844,8.844,0,0,0,49.8,9.918,45.835,45.835,0,0,1,56.7,9.4c1.189.028,2.392.087,3.582.177A14.247,14.247,0,0,1,59.66,13.2m-21.071-.792,0-.04a67.033,67.033,0,0,1,10.5-2.357,8.231,8.231,0,0,1-.335,1.838c-.306-.008-.614-.013-.92-.017a61.174,61.174,0,0,0-9.248.577m9.936.145a14.719,14.719,0,0,1-1,2.147,51.3,51.3,0,0,0-9.174-1.47c.02-.044.039-.089.056-.133a60.409,60.409,0,0,1,9.265-.563c.285,0,.569.01.855.019m-1.387,2.8a21.116,21.116,0,0,1-1.569,2.19,44.132,44.132,0,0,0-7.718-3.459q.077-.1.147-.211a50.143,50.143,0,0,1,9.141,1.48M45.1,18.1a24.286,24.286,0,0,1-2.053,2.09,48.308,48.308,0,0,0-5.928-5.28c.1-.092.19-.187.28-.282A43.19,43.19,0,0,1,45.1,18.1m-2.554,2.53a24.424,24.424,0,0,1-2.434,1.833c-1.379-2.653-2.687-4.933-3.891-6.829.143-.1.282-.2.416-.308a47.569,47.569,0,0,1,5.909,5.3m-5.64,3.592c-.657-3.035-1.221-5.715-1.674-8.011q.257-.124.5-.268c1.188,1.9,2.486,4.185,3.858,6.852a22.3,22.3,0,0,1-2.687,1.428M33.56,25.368c.1-3.239.316-6.178.655-8.756.168-.051.337-.111.507-.177.444,2.307,1,4.988,1.643,8.017a19.493,19.493,0,0,1-2.8.917m.08-8.612c-.34,2.585-.564,5.519-.664,8.744q-.717.148-1.434.238c-.44.054-.878.089-1.306.107a67.824,67.824,0,0,1,2.98-9.02c.115-.013.232-.031.352-.055.025,0,.048-.008.073-.013m-4.026,9.1a13.582,13.582,0,0,1-2.157-.166c-.051-.009-.1-.018-.15-.025a68.543,68.543,0,0,1,5.037-8.829s.165.013.24.014a68.951,68.951,0,0,0-2.971,9.007m-2.93-.319a9.739,9.739,0,0,1-1.8-.6,73.785,73.785,0,0,1,6.741-8.259c.03.011.06.021.091.03a69.455,69.455,0,0,0-5.03,8.827m-2.371-.88a6.693,6.693,0,0,1-1.279-.9,76.766,76.766,0,0,1,8.028-7.377l.007.006a74.221,74.221,0,0,0-6.756,8.275M14.1,44.94a67.627,67.627,0,0,0-2.351,9.574A27.707,27.707,0,0,1,7.284,51.2a56.053,56.053,0,0,1,3.195-9.03A21.874,21.874,0,0,0,14.1,44.94M19,58.913c.435.186.876.372,1.324.553a64.431,64.431,0,0,0,6.229,2.185A78.666,78.666,0,0,0,28.05,72.594a66.166,66.166,0,0,1-7.152-1.46q-.8-.217-1.574-.457A86.756,86.756,0,0,1,19,58.913M20.958,72a65.218,65.218,0,0,0,7.256,1.347A63.141,63.141,0,0,0,31.45,83.783a71.644,71.644,0,0,1-8,1.077c-.619.037-1.228.059-1.827.063a108.136,108.136,0,0,1-2.208-13.342q.76.223,1.545.42M38.123,83.157c1.763-.327,3.558-.622,5.338-.86a19.381,19.381,0,0,0,5.432,4.512,51.618,51.618,0,0,0-5.574,2.1c-2.064.905-4.136,1.941-6.155,2.983a29.828,29.828,0,0,1-4.733-7.6c1.865-.382,3.78-.782,5.693-1.136m5.494,6.093A50.476,50.476,0,0,1,49.3,87.032a24.5,24.5,0,0,0,2.842,1.26c1.033.388,2.078.717,3.1,1.03a36.19,36.19,0,0,0-5.624,2.712,72.909,72.909,0,0,0-6.311,4.218A14.812,14.812,0,0,1,40.15,94.57a17.073,17.073,0,0,1-2.6-2.259c1.995-1.074,4.037-2.134,6.068-3.061M67.2,87.775a25.788,25.788,0,0,1,4.479,3.284c-3.081.09-6.312.037-9.833.284A22.986,22.986,0,0,0,56.4,89.214c3.819-1.282,7.411-1.077,10.8-1.439M77.363,85.43a28.014,28.014,0,0,1,3.576,4.393,35.93,35.93,0,0,1-8.711,1.217,26.006,26.006,0,0,0-4.445-3.33,37.011,37.011,0,0,0,9.581-2.28M87.1,79.58a32.493,32.493,0,0,1,2.751,5.887,30.276,30.276,0,0,1-8.391,4.2A28.653,28.653,0,0,0,77.918,85.2,38.439,38.439,0,0,0,87.1,79.58M92.456,61.9c2.714-3.619,5.015-6.908,6.93-10.059.785,1.1,1.519,2.225,2.184,3.349a26.772,26.772,0,0,1,2.054,4.2A91.8,91.8,0,0,1,96.6,69.168a37.329,37.329,0,0,0-1.922-3.811C94,64.19,93.255,63.034,92.456,61.9M80.027,21.989a51.233,51.233,0,0,1-3.354,7.74c-2.823-2.01-5.759-3.973-8.739-5.806a41.642,41.642,0,0,0,2.751-6.389,92.154,92.154,0,0,1,9.369,4.376l-.026.079M56.83,8.707a46.686,46.686,0,0,0-7.034.523,5.248,5.248,0,0,0-.3-1.469,48.187,48.187,0,0,1,10.175-1.6,7.474,7.474,0,0,1,.6,2.708c-1.145-.084-2.3-.139-3.448-.165M22.591,23.3a4.688,4.688,0,0,1-.736-1.143,73.206,73.206,0,0,1,8.589-6.079A77.41,77.41,0,0,0,22.591,23.3m-1.28-.69a5.522,5.522,0,0,0,.792,1.211A72.887,72.887,0,0,0,15.585,31.9a8.4,8.4,0,0,1-1.46-2.246,64.191,64.191,0,0,1,7.186-7.046M18.669,70.467a32.017,32.017,0,0,1-7.127-3.314,68.9,68.9,0,0,1,.7-11.622,60.944,60.944,0,0,0,6.14,3.108,88.651,88.651,0,0,0,.291,11.828m4.889,15.274a74.26,74.26,0,0,0,8.17-1.3,31.471,31.471,0,0,0,4.693,7.842c-2.964,1.542-5.87,3.1-8.613,4.309-.683.3-1.353.584-2.014.839a60.492,60.492,0,0,1-3.952-11.579q.844-.031,1.716-.106M49.927,92.27A35.469,35.469,0,0,1,55.7,89.461,42.675,42.675,0,0,1,61.164,91.4a23.668,23.668,0,0,0-5.339,2.1,45.8,45.8,0,0,0-6.1,3.97,21.9,21.9,0,0,1-5.932-1.042,70.771,70.771,0,0,1,6.133-4.159m22.105-.88a30.711,30.711,0,0,1,3.266,3.7c-2.7-.074-5.525-.249-8.574-.178a43.173,43.173,0,0,0-4.416-3.28c3.48-.237,6.676-.173,9.724-.245M81.2,90.234a30.244,30.244,0,0,1,2.265,4.342,34.615,34.615,0,0,1-7.654.528,31.151,31.151,0,0,0-3.238-3.729A35.938,35.938,0,0,0,81.2,90.234M96.286,70.446A35.034,35.034,0,0,1,98.4,77.8a54.136,54.136,0,0,1-8,7.278,33.126,33.126,0,0,0-2.736-5.959,71.349,71.349,0,0,0,8.621-8.672m.861-36.128a57.983,57.983,0,0,1-4.106,8.909c-2.194-2.181-4.6-4.334-7.164-6.453a58.38,58.38,0,0,0,3.925-8.81,68.643,68.643,0,0,1,7.424,6.124c-.031.093-.047.138-.078.23m-7.981-6.6a57.3,57.3,0,0,1-3.821,8.616c-2.558-2.094-5.278-4.175-8.095-6.2a52.422,52.422,0,0,0,3.424-7.893v0a89.073,89.073,0,0,1,8.548,5.307c-.022.067-.034.1-.056.168m-18.91-11.2a82.313,82.313,0,0,0-9.9-3.15,15.132,15.132,0,0,0,.635-3.733,65.733,65.733,0,0,1,10.144,1.69,19.562,19.562,0,0,1-.877,5.193M60.989,8.928a8.326,8.326,0,0,0-.558-2.79q.911-.026,1.817-.023a54.513,54.513,0,0,1,7.995.626,10,10,0,0,1,.882,3.842A65.931,65.931,0,0,0,60.989,8.928m-39.362,12.6a4.742,4.742,0,0,1-.169-1.342,62.334,62.334,0,0,1,8.716-4.676,73.544,73.544,0,0,0-8.547,6.018M15.193,32.475a63.181,63.181,0,0,0-4.907,8.585A11.479,11.479,0,0,1,8.18,37.944a53.634,53.634,0,0,1,5.476-7.738,9.364,9.364,0,0,0,1.537,2.269m3.562,38.908A113.1,113.1,0,0,0,20.918,84.92,19.639,19.639,0,0,1,12.872,83.2a132.324,132.324,0,0,1-1.309-15.05,31.378,31.378,0,0,0,7.191,3.23m2.381,14.48a64.5,64.5,0,0,0,3.889,11.852,18.73,18.73,0,0,1-8.692,1.326,99.96,99.96,0,0,1-3.284-14.65,19.663,19.663,0,0,0,8.087,1.472m68.9.15a31.3,31.3,0,0,1,1.278,5.465,24.673,24.673,0,0,1-7.353,2.993,31.047,31.047,0,0,0-2.24-4.387,29.861,29.861,0,0,0,8.315-4.071M103.889,60.12a34.955,34.955,0,0,1,1.82,8.275,75.785,75.785,0,0,1-6.72,8.754,35.759,35.759,0,0,0-2.136-7.376,93.173,93.173,0,0,0,7.036-9.653m4.33-9.638a49.8,49.8,0,0,1-4.105,8.114,26.672,26.672,0,0,0-1.956-3.915c-.708-1.208-1.49-2.409-2.326-3.577a54.821,54.821,0,0,0,4.338-8.842c.757,1.129,1.462,2.3,2.1,3.482a39.726,39.726,0,0,1,2.056,4.45l-.107.289m-4.588-8.6a53.738,53.738,0,0,1-4.2,8.677A62.735,62.735,0,0,0,93.511,43.7a59.133,59.133,0,0,0,4.235-9.106,49.886,49.886,0,0,1,5.98,7.019l-.1.269M80.293,21.144a92.206,92.206,0,0,0-9.376-4.361,20.538,20.538,0,0,0,.912-5.276,66.9,66.9,0,0,1,9.536,3.267,22.984,22.984,0,0,1-1.072,6.37M38.674,10.989a56.834,56.834,0,0,1,9-4.573,3.852,3.852,0,0,1,.821.943,64.614,64.614,0,0,0-9.825,3.63m-.591-.361a46.213,46.213,0,0,1,7.733-5.184,5.843,5.843,0,0,1,1.245.541,57.207,57.207,0,0,0-8.979,4.643m-.774-.146-.039-.01a35.15,35.15,0,0,1,6.04-5.416,10.589,10.589,0,0,1,1.617.167,47.249,47.249,0,0,0-7.618,5.258m-.746-.1c-.063,0-.127,0-.192,0a24.518,24.518,0,0,1,3.88-5.1,17.253,17.253,0,0,1,2.009-.219,36.3,36.3,0,0,0-5.7,5.314m-6.818,4.628a62.819,62.819,0,0,0-8.21,4.377,5.461,5.461,0,0,1,.274-1.128c.28-.145.56-.287.831-.42a51.029,51.029,0,0,1,7.1-2.829M20.8,20.615A5.392,5.392,0,0,0,21.062,22a64.923,64.923,0,0,0-7.191,6.992,7.647,7.647,0,0,1-.36-2.555A52.836,52.836,0,0,1,20.8,20.615M10,41.683a56.569,56.569,0,0,0-3.229,9.011,13.271,13.271,0,0,1-2.65-3.717A47.88,47.88,0,0,1,7.8,38.607,12.517,12.517,0,0,0,10,41.683M5.648,63.2a27.274,27.274,0,0,0,5.283,4.554,135.447,135.447,0,0,0,1.245,15.108A18.19,18.19,0,0,1,6.3,77.808,116,116,0,0,1,5.648,63.2m22.31,34.161c2.817-1.316,5.8-2.991,8.846-4.642a17.407,17.407,0,0,0,2.687,2.434,14.59,14.59,0,0,0,3.03,1.689c-3.018,2.257-5.988,4.657-8.8,6.769q-1.072.806-2.109,1.552a15.18,15.18,0,0,1-3.1-3.144,26.555,26.555,0,0,1-2.364-3.855q.888-.374,1.8-.8m5.93,6.84h0c2.908-2.245,5.987-4.8,9.115-7.17a20.092,20.092,0,0,0,5.882,1.091c-2.879,2.242-5.716,4.774-8.408,7.17q-1.059.943-2.086,1.85a10.232,10.232,0,0,1-6.25-1.616q.861-.641,1.746-1.325M50.312,97.5A44.252,44.252,0,0,1,56.1,93.755a15.522,15.522,0,0,1,5.525-2.071,43.073,43.073,0,0,1,4.432,3.248,18.6,18.6,0,0,0-4.526.414A24.5,24.5,0,0,0,56,97.724c-1.868-.13-3.778-.132-5.688-.222m16.9-2.178c2.99-.059,5.761.122,8.412.2.861,1.173,1.606,2.311,2.243,3.3-2.276-.129-4.642-.354-7.153-.447-1.07-.922-2.234-1.981-3.5-3.06m11.15,3.534c-.627-.986-1.365-2.13-2.225-3.316a34.651,34.651,0,0,0,7.535-.48,28.421,28.421,0,0,1,1.185,3.575,32.055,32.055,0,0,1-6.5.221m13.5-7.714a32.517,32.517,0,0,0-1.274-5.515,53.124,53.124,0,0,0,7.934-7.106,34.474,34.474,0,0,1,.349,6.871,40.037,40.037,0,0,1-7.009,5.749m18.556-31.562a47.454,47.454,0,0,1-4.128,7.915,35.3,35.3,0,0,0-1.9-8.174,51.821,51.821,0,0,0,4.267-8.251,33,33,0,0,1,1.882,8.2l-.12.313M97.488,33.3a69.153,69.153,0,0,0-7.433-6.106,25.6,25.6,0,0,0,1.286-7.058,55.113,55.113,0,0,1,7.4,5.821,23.8,23.8,0,0,1-1.25,7.342m-8.016-6.52a89.056,89.056,0,0,0-8.554-5.294,24.177,24.177,0,0,0,1.132-6.408A64.3,64.3,0,0,1,90.668,19.7a24.222,24.222,0,0,1-1.2,7.079M71.83,10.76a10.907,10.907,0,0,0-.777-3.888A52.525,52.525,0,0,1,80.219,9.3a11.749,11.749,0,0,1,1.131,4.686,66.8,66.8,0,0,0-9.52-3.225M62.308,5.453q-1.086,0-2.177.032a6.834,6.834,0,0,0-1.5-1.919,45.945,45.945,0,0,1,5.236-.293c1.218,0,2.443.057,3.645.162a8.806,8.806,0,0,1,2.339,2.574,54.679,54.679,0,0,0-7.547-.556m-2.965.063A48.918,48.918,0,0,0,49.229,7.159a4.344,4.344,0,0,0-.785-1.039,42.259,42.259,0,0,1,9.264-2.44,6.492,6.492,0,0,1,1.634,1.837M39.231,5.482a26.262,26.262,0,0,0-3.564,4.975c-.078.013-.157.028-.237.045l-.168.04a17.679,17.679,0,0,1,1.558-4.406c.683-.223,1.374-.415,2.056-.574.119-.028.237-.054.354-.079M34.654,10.72c-.173.06-.348.127-.523.2-.322-1.46-.542-2.613-.649-3.467.842-.393,1.7-.746,2.546-1.051a20.231,20.231,0,0,0-1.374,4.315m-6.876.175c.67-.511,1.376-1,2.11-1.47A14.63,14.63,0,0,1,32.6,11.78q-.2.143-.389.294A16.243,16.243,0,0,0,27.778,10.9m1.886,3.41a51.19,51.19,0,0,0-7.287,2.909c-.066.032-.131.066-.195.1A8.693,8.693,0,0,1,22.8,16.15a35.817,35.817,0,0,1,6.866-1.845M7.889,37.212a9.65,9.65,0,0,1-.531-3.491,44.084,44.084,0,0,1,5.52-6.669,8.09,8.09,0,0,0,.5,2.5,54.236,54.236,0,0,0-5.492,7.657m-1.3,14.176A48.566,48.566,0,0,0,5.1,61.471,22.325,22.325,0,0,1,2.04,56.627a44.934,44.934,0,0,1,1.81-8.815,14.438,14.438,0,0,0,2.739,3.577m5.759,32.678a106.491,106.491,0,0,0,3.183,14.839,11.415,11.415,0,0,1-6.278-3.739,128.18,128.18,0,0,1-2.787-15.86,17.814,17.814,0,0,0,5.882,4.76M25.383,98.474a27.889,27.889,0,0,0,2.491,4.217,15.756,15.756,0,0,0,2.882,3.071,30.956,30.956,0,0,1-8.909,4.649,25.182,25.182,0,0,1-3.026-4.944,47.712,47.712,0,0,1-2.124-5.309,19.894,19.894,0,0,0,8.686-1.684m15.252,7.252c2.826-2.549,5.81-5.239,8.834-7.581,1.876.078,3.757.048,5.6.125a65.817,65.817,0,0,0-7.44,5.427q-.98.8-1.93,1.611a26.729,26.729,0,0,1-6.567,1.771l1.5-1.353M61.777,95.74a20.273,20.273,0,0,1,4.774-.4c1.248,1.051,2.4,2.094,3.471,3.02-1.139-.032-2.324-.034-3.535.006a29.419,29.419,0,0,0-4.539.356,27.128,27.128,0,0,0-5.2-.941,23.1,23.1,0,0,1,5.027-2.042m16.412,3.595c.523.816.973,1.519,1.356,2.056-1.8-.128-3.653-.35-5.577-.552a20.1,20.1,0,0,1-2.66-1.951c2.408.1,4.685.319,6.882.447M91.395,92.1a21.063,21.063,0,0,1,.087,4.356,21.129,21.129,0,0,1-6.151,2.1,29.013,29.013,0,0,0-1.169-3.6A24.405,24.405,0,0,0,91.395,92.1m14.391-22.763a37.317,37.317,0,0,1-.323,8,58.2,58.2,0,0,1-5.954,7.4,35.7,35.7,0,0,0-.4-6.857,76.531,76.531,0,0,0,6.676-8.541m2.869-20.094a40.679,40.679,0,0,0-1.85-3.951,42.875,42.875,0,0,0-2.341-3.862,24.257,24.257,0,0,0,1.4-6.949c.677,1.059,1.308,2.154,1.883,3.265a42.282,42.282,0,0,1,2.052,4.632,20.527,20.527,0,0,1-1.142,6.864m-4.645-8.467a50.647,50.647,0,0,0-6-6.973,25.357,25.357,0,0,0,1.373-7.226,45.235,45.235,0,0,1,5.857,6.966,22.337,22.337,0,0,1-1.234,7.233M91.339,19.291A13.713,13.713,0,0,0,90.319,14.3a48,48,0,0,1,6.861,5.352A12.725,12.725,0,0,1,98.7,24.994a55.908,55.908,0,0,0-7.362-5.7m-9.29-5a12.746,12.746,0,0,0-.941-4.655,50.856,50.856,0,0,1,8.2,4.036,12.632,12.632,0,0,1,1.342,5.178,64.5,64.5,0,0,0-8.6-4.559M70.713,6.14A9.065,9.065,0,0,0,68.7,3.554a41.8,41.8,0,0,1,8.115,1.759,10.915,10.915,0,0,1,2.926,3.11A52.671,52.671,0,0,0,70.713,6.14M63.872,2.652a46.578,46.578,0,0,0-5.915.371,8.916,8.916,0,0,0-2.17-1.12,31.822,31.822,0,0,1,6.079-.538c.438,0,.874.012,1.253.021a14.1,14.1,0,0,1,3.329,1.348c-.855-.052-1.717-.079-2.577-.081m-15.978,3A5.748,5.748,0,0,0,46.687,5a36.051,36.051,0,0,1,7.831-2.828,9.583,9.583,0,0,1,2.428.99,42.786,42.786,0,0,0-9.053,2.5M45.87,4.724a9.829,9.829,0,0,0-1.626-.289,24.925,24.925,0,0,1,6.011-2.812,18.865,18.865,0,0,1,2.955.263A36.668,36.668,0,0,0,45.87,4.724m-2.642-.341h-.1a16.036,16.036,0,0,0-2.025.123,14.094,14.094,0,0,1,3.942-2.44,31.053,31.053,0,0,1,3.3-.394,26.02,26.02,0,0,0-5.112,2.711M33.1,11.453a16.777,16.777,0,0,0-2.63-2.389c.8-.483,1.622-.934,2.458-1.344.13.871.364,2.016.693,3.444-.177.091-.352.189-.521.29m-5.914.032a14.839,14.839,0,0,1,4.509,1.048c-.074.073-.144.146-.213.219-.223-.018-.446-.035-.666-.048a24.071,24.071,0,0,0-5.433.262c.514-.506,1.07-1,1.66-1.489l.143.007M16.814,18.493a29.091,29.091,0,0,1,2.059-2.424,16.712,16.712,0,0,1,4.683-2.059,15.782,15.782,0,0,0-1.2,1.638,30.478,30.478,0,0,0-5.539,2.844m4.461-.7,0,.018a43.7,43.7,0,0,0-6.654,4.28,18.8,18.8,0,0,1,1.151-2.123,29.208,29.208,0,0,1,6.069-3.428,10.623,10.623,0,0,0-.561,1.253m-8.038,6.285a10.341,10.341,0,0,0-.353,2.1,45.118,45.118,0,0,0-5.422,6.334,14.349,14.349,0,0,1,.745-2.923,34.439,34.439,0,0,1,5.03-5.51M7.486,37.907a48.652,48.652,0,0,0-3.718,8.224A11.2,11.2,0,0,1,3.1,41.992a39.916,39.916,0,0,1,3.661-7.355,10.057,10.057,0,0,0,.724,3.269M1.935,57.825A24.953,24.953,0,0,0,5.061,62.52a114.215,114.215,0,0,0,.547,14.333A26.856,26.856,0,0,1,2.2,69.79a76.776,76.776,0,0,1-.265-11.965m13.957,42.242a50.657,50.657,0,0,0,2.318,6.006,27.171,27.171,0,0,0,2.655,4.567,8.169,8.169,0,0,1-6.331-1.094,43.737,43.737,0,0,1-2.976-6.652c-.668-1.855-1.287-3.862-1.847-5.95a11.1,11.1,0,0,0,6.182,3.124m15.385,6.087a10.042,10.042,0,0,0,6.114,1.862,64.637,64.637,0,0,1-8.53,6.562,9.807,9.807,0,0,1-6.386-3.436,35.349,35.349,0,0,0,8.8-4.988m6.849,1.827a23.181,23.181,0,0,0,6.281-1.574c-2.7,2.306-5.207,4.486-7.4,6.144a16.936,16.936,0,0,1-7.066,2.067,82.324,82.324,0,0,0,8.19-6.636m9.65-3.9a61.61,61.61,0,0,1,8.034-5.775,28.621,28.621,0,0,1,4.951.683,27.066,27.066,0,0,0-5.862,2.385c-.575.306-1.142.628-1.626.919-2.151.789-4.313,1.725-6.438,2.571.311-.261.941-.782.941-.782m18.912-5.218c1.344-.048,2.658-.041,3.917,0a29.251,29.251,0,0,0,2.41,1.879c-.744-.074-1.5-.143-2.263-.2-1.132-.089-2.292-.158-3.4-.2a36.484,36.484,0,0,1-4.265-1.223c1.225-.125,2.432-.207,3.605-.248m11.992.5a32.3,32.3,0,0,0,6.3-.194,10.216,10.216,0,0,1,.3,2.144,27.681,27.681,0,0,1-5.237.112c-.368-.5-.821-1.207-1.363-2.063m6.778-.268A21.041,21.041,0,0,0,91.4,97.152a7.372,7.372,0,0,1-.854,2.668,18.147,18.147,0,0,1-4.77,1.422,12.452,12.452,0,0,0-.315-2.148M97.385,93.02A13.932,13.932,0,0,1,95.4,96.673a21.232,21.232,0,0,1-4.043,2.749,9.967,9.967,0,0,0,.63-2.578,28.418,28.418,0,0,0,5.394-3.824m7.859-14.379a36.53,36.53,0,0,1-1.957,6.846,41.568,41.568,0,0,1-4.715,5.64,28.708,28.708,0,0,0,.89-5.513,58.327,58.327,0,0,0,5.783-6.973m4.7-9.45a44.572,44.572,0,0,1-3.724,7.005,37.82,37.82,0,0,0,.163-7.756,50.919,50.919,0,0,0,4.252-7.823,36.628,36.628,0,0,1-.544,8.211c-.059.146-.088.219-.147.363M111,57.938a34.662,34.662,0,0,0-2-7.8,23.2,23.2,0,0,0,1.349-6.084,39.918,39.918,0,0,1,1.244,5.163c.154,1.164.271,2.329.347,3.437A18.974,18.974,0,0,1,111,57.938m-2.773-20.593a42.175,42.175,0,0,0-2.363-4.018,14.068,14.068,0,0,0-.323-2.584,52.557,52.557,0,0,1,3.958,9.124c.025.119.048.235.07.352-.409-.973-.858-1.934-1.343-2.873M99.386,25.637a14.01,14.01,0,0,0-.914-4.687,38.915,38.915,0,0,1,2.757,3.128,48.025,48.025,0,0,1,2.764,4.012,12.631,12.631,0,0,1,1.18,4.229,46.385,46.385,0,0,0-5.787-6.683M88.608,12.5A51.482,51.482,0,0,0,80.7,8.772a10.934,10.934,0,0,0-2.152-2.832,41.689,41.689,0,0,1,4.441,2c1.074.618,2.193,1.322,3.4,2.128A12.262,12.262,0,0,1,88.608,12.5M67.794,2.837a12.086,12.086,0,0,0-2.3-1.271c.259.032.515.069.766.1a52.537,52.537,0,0,1,8.235,2.295l.19.091a41.922,41.922,0,0,0-6.889-1.219M40.039,4.663q-.593.1-1.212.249c-.5.116-1,.249-1.5.4A5.594,5.594,0,0,1,38.96,3.7c1.02-.359,2.022-.679,2.974-.952l.312-.082c.193-.052.386-.1.58-.15a15.954,15.954,0,0,0-2.787,2.143M33.44,5.99c1.287-.616,2.6-1.185,3.932-1.7a7.788,7.788,0,0,0-.919,1.294,30.366,30.366,0,0,0-3.037,1.206,3.107,3.107,0,0,1,.025-.8M29.056,8.323c1.219-.717,2.475-1.4,3.749-2.025a6.141,6.141,0,0,0,.038.763,33,33,0,0,0-2.964,1.63,4.412,4.412,0,0,0-.823-.367m-4.166,2.686c1.061-.747,2.166-1.472,3.3-2.168a1.386,1.386,0,0,1,.153,0,2.486,2.486,0,0,1,.914.245c-.852.555-1.666,1.144-2.425,1.754a8.992,8.992,0,0,0-1.944.172m-4.373,3.455c.289-.268.589-.543.9-.8.58-.492,1.2-.975,1.778-1.419a7.351,7.351,0,0,1,2.863-.754,23.29,23.29,0,0,0-1.763,1.692,18.159,18.159,0,0,0-3.774,1.284M13.64,22.817l-.029.084-.308.253c-.207.166-.414.332-.61.508a35.079,35.079,0,0,0-3.356,3.446c.024-.046.048-.092.073-.137.8-1.226,1.542-2.288,2.258-3.234a25.8,25.8,0,0,1,2.819-2.76,15.729,15.729,0,0,0-.846,1.841M3.37,39.786c.042-.259.089-.493.146-.729a52.964,52.964,0,0,1,2.113-5.284c.454-.884.95-1.747,1.481-2.58a12.5,12.5,0,0,0-.349,2.341,40.807,40.807,0,0,0-3.39,6.251M.911,51.591c.073-.839.165-1.669.273-2.485a40.018,40.018,0,0,1,1.394-5.621,11.281,11.281,0,0,0,.895,3.538,47.3,47.3,0,0,0-1.888,8.5,12.192,12.192,0,0,1-.674-3.934M5.765,78.4A135.9,135.9,0,0,0,8.33,94.024a23.476,23.476,0,0,1-3.28-6.761c-.072-.29-.108-.435-.179-.724-.127-.512-.259-1.027-.369-1.528A125.28,125.28,0,0,1,2.455,72.32,26.8,26.8,0,0,0,5.765,78.4M8.794,95.966c.649,2.6,1.387,5.1,2.2,7.383a50.79,50.79,0,0,0,1.976,4.82,11.461,11.461,0,0,1-.75-.924A73.012,73.012,0,0,1,6.359,92.227a18.68,18.68,0,0,0,2.436,3.739M21.489,111.44a10.475,10.475,0,0,0,6.008,3.9,10.29,10.29,0,0,1-5.338,1.374,11.063,11.063,0,0,1-1.571-.578,14.908,14.908,0,0,1-5.012-4.9,8.97,8.97,0,0,0,5.912.2m24.031-5.463c1.78-.708,3.594-1.512,5.414-2.257-.762.485-1.52.985-2.266,1.484-2.338,1.449-4.608,3.033-6.719,4.458-.915.587-1.809,1.143-2.675,1.649,1.949-1.609,4.045-3.456,6.247-5.334m34.423-4.054c.04.049.078.1.117.141-1.219-.108-2.507-.287-3.853-.489,1.273.137,2.517.265,3.736.348m22.273-14.078q-.289.576-.6,1.131a46.386,46.386,0,0,1-4.508,5.993,18.3,18.3,0,0,0,1.131-2.737,40.479,40.479,0,0,0,3.974-4.387M109.51,71.5c-.158.637-.329,1.273-.515,1.9a74.691,74.691,0,0,1-3.208,7.984q-.578,1.091-1.221,2.143A38.049,38.049,0,0,0,106.03,77.5a49.617,49.617,0,0,0,3.48-6M89.8,13.216a11.59,11.59,0,0,0-.862-1.35A61.884,61.884,0,0,1,94.342,16.4,48.807,48.807,0,0,0,89.8,13.216M54.609,1.545a16.844,16.844,0,0,0-2.429-.418C52.938.969,53.714.848,54.5.764l.348-.013c.512-.02,1.023-.04,1.539-.041,1.069,0,2.2.047,3.412.131a32.85,32.85,0,0,0-5.189.7M15.389,19.489c-.173.13-.346.262-.516.4q.438-.483.891-.96c-.131.189-.256.378-.375.564M1.412,66.738c-.018-.087-.035-.172-.051-.257A93.172,93.172,0,0,1,.689,56.407c0-.573.011-1.141.032-1.736a12.735,12.735,0,0,0,.722,2.107,64.793,64.793,0,0,0-.032,9.961M61.845,99.273c1.023.293,2.013.667,2.972.944-.9-.038-1.734-.068-2.553-.057a17.358,17.358,0,0,0-5.113.88c-.5.132-.991.277-1.478.43a23.7,23.7,0,0,1,6.171-2.2m23.368,2.593a.652.652,0,0,1-.059.129,22.1,22.1,0,0,1-4.511.112,1.621,1.621,0,0,1-.165-.153,27.687,27.687,0,0,0,4.734-.089"
              transform="translate(0 0)"/>
    </g>
</svg>
